<svg xmlns="http://www.w3.org/2000/svg" xmlns:xlink="http://www.w3.org/1999/xlink" width="500" zoomAndPan="magnify" viewBox="0 0 375 374.999991" height="500" preserveAspectRatio="xMidYMid meet" version="1.0"><defs><g/><clipPath id="5bc87c4cb5"><path d="M 53 133 L 150.589844 133 L 150.589844 243.625 L 53 243.625 Z M 53 133 " clip-rule="nonzero"/></clipPath></defs><g clip-path="url(#5bc87c4cb5)"><path fill="#5271ff" d="M 142.90625 139.945312 C 138.53125 135.777344 132.667969 133.449219 126.625 133.472656 C 120.382812 133.496094 114.519531 135.9375 110.105469 140.351562 L 101.683594 148.769531 L 93.476562 140.5625 C 84.335938 131.421875 69.445312 131.132812 60.214844 140.1875 C 50.890625 149.332031 50.835938 164.355469 60.046875 173.566406 L 104.625 218.144531 C 109.714844 223.234375 109.953125 231.519531 104.964844 236.699219 C 99.859375 242.003906 91.386719 242.066406 86.203125 236.886719 L 75.160156 225.84375 C 74.695312 225.378906 74.648438 224.640625 75.046875 224.113281 C 76.679688 221.96875 77.582031 219.246094 77.378906 216.308594 C 76.980469 210.511719 72.242188 205.847656 66.4375 205.546875 C 59.714844 205.195312 54.140625 210.609375 54.230469 217.273438 C 54.3125 223.449219 59.347656 228.546875 65.519531 228.699219 C 67.511719 228.75 69.390625 228.296875 71.046875 227.457031 C 71.546875 227.199219 72.160156 227.308594 72.554688 227.707031 L 83.964844 239.117188 C 87.140625 242.292969 91.3125 243.878906 95.488281 243.878906 C 99.660156 243.878906 103.835938 242.292969 107.011719 239.117188 C 113.363281 232.761719 113.363281 222.421875 107.011719 216.070312 L 62.28125 171.335938 C 54.355469 163.410156 54.355469 150.511719 62.28125 142.585938 C 70.210938 134.660156 83.109375 134.660156 91.03125 142.585938 L 100.527344 152.082031 C 100.847656 152.398438 101.265625 152.550781 101.683594 152.539062 C 102.105469 152.550781 102.523438 152.398438 102.84375 152.082031 L 112.148438 142.773438 C 116.007812 138.914062 121.21875 136.640625 126.671875 136.632812 C 132.121094 136.621094 137.242188 138.738281 141.089844 142.585938 C 144.9375 146.433594 147.050781 151.550781 147.042969 156.992188 C 147.035156 162.453125 144.761719 167.664062 140.902344 171.527344 L 137.894531 174.535156 C 137.648438 174.78125 137.308594 174.921875 136.960938 174.921875 L 127.996094 174.921875 C 127.496094 174.921875 127.039062 174.640625 126.816406 174.195312 L 122.488281 165.535156 C 122.003906 164.5625 120.621094 164.5625 120.136719 165.535156 L 112.691406 180.40625 C 112.207031 181.378906 110.824219 181.378906 110.339844 180.40625 L 107.800781 175.320312 C 107.316406 174.351562 105.929688 174.351562 105.449219 175.320312 L 102.90625 180.40625 C 102.421875 181.375 101.039062 181.375 100.554688 180.40625 L 93.117188 165.53125 C 92.632812 164.558594 91.25 164.558594 90.765625 165.53125 L 86.433594 174.191406 C 86.210938 174.636719 85.753906 174.917969 85.257812 174.917969 L 77.324219 174.917969 C 76.457031 174.917969 75.707031 175.582031 75.679688 176.449219 C 75.652344 177.34375 76.367188 178.074219 77.257812 178.074219 L 87.210938 178.074219 C 87.707031 178.074219 88.164062 177.792969 88.386719 177.347656 L 90.765625 172.589844 C 91.25 171.617188 92.632812 171.617188 93.117188 172.589844 L 100.554688 187.464844 C 101.039062 188.433594 102.421875 188.433594 102.90625 187.464844 L 105.449219 182.378906 C 105.929688 181.410156 107.316406 181.410156 107.800781 182.378906 L 110.339844 187.464844 C 110.824219 188.4375 112.207031 188.4375 112.691406 187.464844 L 120.128906 172.589844 C 120.613281 171.621094 122 171.621094 122.484375 172.589844 L 124.863281 177.351562 C 125.085938 177.796875 125.542969 178.078125 126.039062 178.078125 L 138.160156 178.078125 C 138.257812 178.078125 138.351562 178.066406 138.445312 178.050781 C 138.449219 178.050781 138.457031 178.046875 138.460938 178.046875 C 138.554688 178.027344 138.648438 178.003906 138.734375 177.96875 C 138.742188 177.964844 138.75 177.964844 138.757812 177.960938 C 138.84375 177.925781 138.929688 177.878906 139.007812 177.828125 C 139.015625 177.824219 139.023438 177.820312 139.03125 177.816406 C 139.113281 177.757812 139.195312 177.695312 139.269531 177.625 C 139.269531 177.621094 139.269531 177.621094 139.273438 177.617188 L 143.09375 173.796875 C 147.613281 169.277344 150.25 163.15625 150.203125 156.761719 C 150.148438 150.371094 147.558594 144.378906 142.90625 139.945312 Z M 57.390625 217.117188 C 57.390625 212.46875 61.171875 208.6875 65.816406 208.6875 C 70.464844 208.6875 74.246094 212.46875 74.246094 217.117188 C 74.246094 221.765625 70.464844 225.546875 65.816406 225.546875 C 61.171875 225.546875 57.390625 221.765625 57.390625 217.117188 Z M 57.390625 217.117188 " fill-opacity="1" fill-rule="nonzero"/></g><g fill="#1e0a0b" fill-opacity="1"><g transform="translate(156.77122, 182.999988)"><g><path d="M 24.125 0 L 24.09375 -16.3125 L 16 -2.71875 L 14.53125 -2.71875 L 6.4375 -16.21875 L 6.4375 0 L 3.359375 0 L 3.359375 -22.40625 L 5.984375 -22.40625 L 15.328125 -6.65625 L 24.546875 -22.40625 L 27.171875 -22.40625 L 27.203125 0 Z M 24.125 0 "/></g></g></g><g fill="#1e0a0b" fill-opacity="1"><g transform="translate(187.323705, 182.999988)"><g><path d="M 19.609375 -2.78125 L 19.609375 0 L 3.359375 0 L 3.359375 -22.40625 L 19.171875 -22.40625 L 19.171875 -19.609375 L 6.5625 -19.609375 L 6.5625 -12.734375 L 17.796875 -12.734375 L 17.796875 -10.015625 L 6.5625 -10.015625 L 6.5625 -2.78125 Z M 19.609375 -2.78125 "/></g></g></g><g fill="#1e0a0b" fill-opacity="1"><g transform="translate(208.75843, 182.999988)"><g><path d="M 3.359375 -22.40625 L 12.796875 -22.40625 C 15.171875 -22.40625 17.273438 -21.929688 19.109375 -20.984375 C 20.941406 -20.046875 22.363281 -18.726562 23.375 -17.03125 C 24.382812 -15.34375 24.890625 -13.398438 24.890625 -11.203125 C 24.890625 -9.003906 24.382812 -7.054688 23.375 -5.359375 C 22.363281 -3.660156 20.941406 -2.34375 19.109375 -1.40625 C 17.273438 -0.46875 15.171875 0 12.796875 0 L 3.359375 0 Z M 12.609375 -2.78125 C 14.421875 -2.78125 16.015625 -3.128906 17.390625 -3.828125 C 18.765625 -4.535156 19.828125 -5.523438 20.578125 -6.796875 C 21.328125 -8.066406 21.703125 -9.535156 21.703125 -11.203125 C 21.703125 -12.867188 21.328125 -14.332031 20.578125 -15.59375 C 19.828125 -16.863281 18.765625 -17.847656 17.390625 -18.546875 C 16.015625 -19.253906 14.421875 -19.609375 12.609375 -19.609375 L 6.5625 -19.609375 L 6.5625 -2.78125 Z M 12.609375 -2.78125 "/></g></g></g><g fill="#1e0a0b" fill-opacity="1"><g transform="translate(235.183935, 182.999988)"><g><path d="M 3.359375 -22.40625 L 6.5625 -22.40625 L 6.5625 0 L 3.359375 0 Z M 3.359375 -22.40625 "/></g></g></g><g fill="#1e0a0b" fill-opacity="1"><g transform="translate(245.101499, 182.999988)"><g><path d="M 13.375 0.25 C 11.132812 0.25 9.113281 -0.242188 7.3125 -1.234375 C 5.507812 -2.222656 4.09375 -3.585938 3.0625 -5.328125 C 2.039062 -7.066406 1.53125 -9.023438 1.53125 -11.203125 C 1.53125 -13.378906 2.039062 -15.335938 3.0625 -17.078125 C 4.09375 -18.816406 5.515625 -20.179688 7.328125 -21.171875 C 9.140625 -22.160156 11.164062 -22.65625 13.40625 -22.65625 C 15.15625 -22.65625 16.753906 -22.359375 18.203125 -21.765625 C 19.660156 -21.179688 20.898438 -20.316406 21.921875 -19.171875 L 19.84375 -17.15625 C 18.15625 -18.925781 16.050781 -19.8125 13.53125 -19.8125 C 11.875 -19.8125 10.375 -19.4375 9.03125 -18.6875 C 7.6875 -17.9375 6.632812 -16.90625 5.875 -15.59375 C 5.113281 -14.28125 4.734375 -12.816406 4.734375 -11.203125 C 4.734375 -9.578125 5.113281 -8.109375 5.875 -6.796875 C 6.632812 -5.484375 7.6875 -4.453125 9.03125 -3.703125 C 10.375 -2.960938 11.875 -2.59375 13.53125 -2.59375 C 16.03125 -2.59375 18.132812 -3.488281 19.84375 -5.28125 L 21.921875 -3.265625 C 20.898438 -2.109375 19.65625 -1.234375 18.1875 -0.640625 C 16.726562 -0.046875 15.125 0.25 13.375 0.25 Z M 13.375 0.25 "/></g></g></g><g fill="#1e0a0b" fill-opacity="1"><g transform="translate(268.231815, 182.999988)"><g><path d="M 17.625 -5.59375 L 5.734375 -5.59375 L 3.265625 0 L -0.03125 0 L 10.109375 -22.40625 L 13.28125 -22.40625 L 23.453125 0 L 20.09375 0 Z M 16.515625 -8.15625 L 11.6875 -19.140625 L 6.84375 -8.15625 Z M 16.515625 -8.15625 "/></g></g></g><g fill="#1e0a0b" fill-opacity="1"><g transform="translate(291.650053, 182.999988)"><g><path d="M 3.359375 -22.40625 L 6.5625 -22.40625 L 6.5625 -2.78125 L 18.6875 -2.78125 L 18.6875 0 L 3.359375 0 Z M 3.359375 -22.40625 "/></g></g></g><g fill="#1e0a0b" fill-opacity="1"><g transform="translate(156.77122, 214.499986)"><g><path d="M 13.375 0.25 C 11.132812 0.25 9.113281 -0.242188 7.3125 -1.234375 C 5.507812 -2.222656 4.09375 -3.585938 3.0625 -5.328125 C 2.039062 -7.066406 1.53125 -9.023438 1.53125 -11.203125 C 1.53125 -13.378906 2.039062 -15.335938 3.0625 -17.078125 C 4.09375 -18.816406 5.515625 -20.179688 7.328125 -21.171875 C 9.140625 -22.160156 11.164062 -22.65625 13.40625 -22.65625 C 15.15625 -22.65625 16.753906 -22.359375 18.203125 -21.765625 C 19.660156 -21.179688 20.898438 -20.316406 21.921875 -19.171875 L 19.84375 -17.15625 C 18.15625 -18.925781 16.050781 -19.8125 13.53125 -19.8125 C 11.875 -19.8125 10.375 -19.4375 9.03125 -18.6875 C 7.6875 -17.9375 6.632812 -16.90625 5.875 -15.59375 C 5.113281 -14.28125 4.734375 -12.816406 4.734375 -11.203125 C 4.734375 -9.578125 5.113281 -8.109375 5.875 -6.796875 C 6.632812 -5.484375 7.6875 -4.453125 9.03125 -3.703125 C 10.375 -2.960938 11.875 -2.59375 13.53125 -2.59375 C 16.03125 -2.59375 18.132812 -3.488281 19.84375 -5.28125 L 21.921875 -3.265625 C 20.898438 -2.109375 19.65625 -1.234375 18.1875 -0.640625 C 16.726562 -0.046875 15.125 0.25 13.375 0.25 Z M 13.375 0.25 "/></g></g></g><g fill="#1e0a0b" fill-opacity="1"><g transform="translate(179.901536, 214.499986)"><g><path d="M 3.359375 -22.40625 L 6.5625 -22.40625 L 6.5625 -2.78125 L 18.6875 -2.78125 L 18.6875 0 L 3.359375 0 Z M 3.359375 -22.40625 "/></g></g></g><g fill="#1e0a0b" fill-opacity="1"><g transform="translate(198.904862, 214.499986)"><g><path d="M 3.359375 -22.40625 L 6.5625 -22.40625 L 6.5625 0 L 3.359375 0 Z M 3.359375 -22.40625 "/></g></g></g><g fill="#1e0a0b" fill-opacity="1"><g transform="translate(208.822426, 214.499986)"><g><path d="M 22.625 -22.40625 L 22.625 0 L 20 0 L 6.5625 -16.703125 L 6.5625 0 L 3.359375 0 L 3.359375 -22.40625 L 5.984375 -22.40625 L 19.421875 -5.703125 L 19.421875 -22.40625 Z M 22.625 -22.40625 "/></g></g></g><g fill="#1e0a0b" fill-opacity="1"><g transform="translate(234.800043, 214.499986)"><g><path d="M 3.359375 -22.40625 L 6.5625 -22.40625 L 6.5625 0 L 3.359375 0 Z M 3.359375 -22.40625 "/></g></g></g><g fill="#1e0a0b" fill-opacity="1"><g transform="translate(244.717607, 214.499986)"><g><path d="M 13.375 0.25 C 11.132812 0.25 9.113281 -0.242188 7.3125 -1.234375 C 5.507812 -2.222656 4.09375 -3.585938 3.0625 -5.328125 C 2.039062 -7.066406 1.53125 -9.023438 1.53125 -11.203125 C 1.53125 -13.378906 2.039062 -15.335938 3.0625 -17.078125 C 4.09375 -18.816406 5.515625 -20.179688 7.328125 -21.171875 C 9.140625 -22.160156 11.164062 -22.65625 13.40625 -22.65625 C 15.15625 -22.65625 16.753906 -22.359375 18.203125 -21.765625 C 19.660156 -21.179688 20.898438 -20.316406 21.921875 -19.171875 L 19.84375 -17.15625 C 18.15625 -18.925781 16.050781 -19.8125 13.53125 -19.8125 C 11.875 -19.8125 10.375 -19.4375 9.03125 -18.6875 C 7.6875 -17.9375 6.632812 -16.90625 5.875 -15.59375 C 5.113281 -14.28125 4.734375 -12.816406 4.734375 -11.203125 C 4.734375 -9.578125 5.113281 -8.109375 5.875 -6.796875 C 6.632812 -5.484375 7.6875 -4.453125 9.03125 -3.703125 C 10.375 -2.960938 11.875 -2.59375 13.53125 -2.59375 C 16.03125 -2.59375 18.132812 -3.488281 19.84375 -5.28125 L 21.921875 -3.265625 C 20.898438 -2.109375 19.65625 -1.234375 18.1875 -0.640625 C 16.726562 -0.046875 15.125 0.25 13.375 0.25 Z M 13.375 0.25 "/></g></g></g></svg>